<svg width="30" height="28" viewBox="0 0 25 23" fill="none" xmlns="http://www.w3.org/2000/svg">
<g filter="url(#filter0_d_2258_1319)">
<path d="M7.72927 4.14583C7.72927 3.78196 7.80094 3.42165 7.94019 3.08548C8.07944 2.74931 8.28353 2.44385 8.54083 2.18656C8.79813 1.92926 9.10358 1.72516 9.43975 1.58592C9.77593 1.44667 10.1362 1.375 10.5001 1.375C10.864 1.375 11.2243 1.44667 11.5605 1.58592C11.8966 1.72516 12.2021 1.92926 12.4594 2.18656C12.7167 2.44385 12.9208 2.74931 13.06 3.08548C13.1993 3.42165 13.2709 3.78196 13.2709 4.14583C13.2709 4.8807 12.979 5.58548 12.4594 6.10511C11.9397 6.62474 11.235 6.91667 10.5001 6.91667C9.76523 6.91667 9.06046 6.62474 8.54083 6.10511C8.0212 5.58548 7.72927 4.8807 7.72927 4.14583ZM4.5626 7.70833C5.08751 7.70833 5.59092 7.49981 5.96209 7.12865C6.33325 6.75748 6.54177 6.25407 6.54177 5.72917C6.54177 5.20426 6.33325 4.70085 5.96209 4.32968C5.59092 3.95852 5.08751 3.75 4.5626 3.75C4.0377 3.75 3.53429 3.95852 3.16312 4.32968C2.79196 4.70085 2.58344 5.20426 2.58344 5.72917C2.58344 6.25407 2.79196 6.75748 3.16312 7.12865C3.53429 7.49981 4.0377 7.70833 4.5626 7.70833ZM18.4168 5.72917C18.4168 6.25407 18.2083 6.75748 17.8371 7.12865C17.4659 7.49981 16.9625 7.70833 16.4376 7.70833C15.9127 7.70833 15.4093 7.49981 15.0381 7.12865C14.667 6.75748 14.4584 6.25407 14.4584 5.72917C14.4584 5.20426 14.667 4.70085 15.0381 4.32968C15.4093 3.95852 15.9127 3.75 16.4376 3.75C16.9625 3.75 17.4659 3.95852 17.8371 4.32968C18.2083 4.70085 18.4168 5.20426 18.4168 5.72917ZM9.3126 8.5C8.2201 8.5 7.33344 9.38667 7.33344 10.4792V12.4583C7.33344 13.2982 7.66707 14.1036 8.26093 14.6975C8.8548 15.2914 9.66025 15.625 10.5001 15.625C11.34 15.625 12.1454 15.2914 12.7393 14.6975C13.3331 14.1036 13.6668 13.2982 13.6668 12.4583V10.4792C13.6668 9.38667 12.7801 8.5 11.6876 8.5H9.3126ZM5.7501 10.4792C5.7501 10.0216 5.8356 9.58458 5.99394 9.184L4.04485 9.7065C3.53813 9.84233 3.10606 10.1738 2.84361 10.628C2.58115 11.0823 2.50978 11.6222 2.64519 12.129L2.95235 13.2769C3.06002 13.6787 3.24576 14.0553 3.49899 14.3852C3.75221 14.7151 4.06796 14.992 4.42818 15.1999C4.78841 15.4078 5.18606 15.5427 5.59843 15.5969C6.0108 15.6511 6.42981 15.6235 6.83152 15.5157L6.85844 15.5078C6.1425 14.6529 5.75016 13.5734 5.7501 12.4583V10.4792ZM15.2501 12.4583C15.2501 13.6189 14.8337 14.6829 14.1418 15.5094L14.1671 15.5157C14.9782 15.7329 15.8423 15.619 16.5695 15.1992C17.2966 14.7794 17.8272 14.0879 18.0447 13.2769L18.3519 12.129C18.4873 11.6222 18.4159 11.0823 18.1534 10.628C17.891 10.1738 17.4589 9.84233 16.9522 9.7065L15.0079 9.184C15.1646 9.58617 15.2501 10.0232 15.2501 10.4792V12.4583Z" fill="#004D40"/>
</g>
<defs>
<filter id="filter0_d_2258_1319" x="0.578125" y="0.375" width="23.8408" height="22.25" filterUnits="userSpaceOnUse" color-interpolation-filters="sRGB">
<feFlood flood-opacity="0" result="BackgroundImageFix"/>
<feColorMatrix in="SourceAlpha" type="matrix" values="0 0 0 0 0 0 0 0 0 0 0 0 0 0 0 0 0 0 127 0" result="hardAlpha"/>
<feOffset dx="2" dy="3"/>
<feGaussianBlur stdDeviation="2"/>
<feComposite in2="hardAlpha" operator="out"/>
<feColorMatrix type="matrix" values="0 0 0 0 0 0 0 0 0 0 0 0 0 0 0 0 0 0 0.25 0"/>
<feBlend mode="normal" in2="BackgroundImageFix" result="effect1_dropShadow_2258_1319"/>
<feBlend mode="normal" in="SourceGraphic" in2="effect1_dropShadow_2258_1319" result="shape"/>
</filter>
</defs>
</svg>
