<?xml version="1.0" encoding="UTF-8" standalone="no"?>
<!-- Created with Inkscape (http://www.inkscape.org/) -->

<svg
   version="1.1"
   id="svg1"
   width="512"
   height="512"
   viewBox="0 0 512 512"
   sodipodi:docname="cemetery.svg"
   inkscape:version="1.3 (0e150ed6c4, 2023-07-21)"
   xmlns:inkscape="http://www.inkscape.org/namespaces/inkscape"
   xmlns:sodipodi="http://sodipodi.sourceforge.net/DTD/sodipodi-0.dtd"
   xmlns="http://www.w3.org/2000/svg"
   xmlns:svg="http://www.w3.org/2000/svg">
  <defs
     id="defs1" />
  <sodipodi:namedview
     id="namedview1"
     pagecolor="#ffffff"
     bordercolor="#000000"
     borderopacity="0.25"
     inkscape:showpageshadow="2"
     inkscape:pageopacity="0.0"
     inkscape:pagecheckerboard="0"
     inkscape:deskcolor="#d1d1d1"
     inkscape:zoom="1.0358009"
     inkscape:cx="184.39837"
     inkscape:cy="230.25661"
     inkscape:window-width="1920"
     inkscape:window-height="991"
     inkscape:window-x="-9"
     inkscape:window-y="-9"
     inkscape:window-maximized="1"
     inkscape:current-layer="g1" />
  <g
     inkscape:groupmode="layer"
     inkscape:label="Image"
     id="g1">
    <path
       style="fill:#157347;fill-opacity:1;stroke-width:0.965437"
       d="m 193.27669,273.41393 c -3.74497,-3.86383 -3.90408,-6.74903 -0.6373,-11.55653 l 2.44839,-3.60314 h 62.18672 62.18672 l 2.46272,3.2288 c 3.27382,4.29219 3.126,7.53383 -0.53359,11.70188 l -2.99632,3.41262 H 257.3782 196.36238 Z"
       id="path4" />
    <path
       style="fill:#157347;fill-opacity:1;stroke-width:0.965437"
       d="m 225.92894,320.36136 c -6.67783,-0.32984 -8.59345,-0.78409 -10.37844,-2.46099 -3.09906,-2.91142 -3.05898,-9.62666 0.0762,-12.76181 2.0146,-2.01459 3.51075,-2.34302 13.52379,-2.96866 6.19223,-0.3869 23.56929,-0.52817 38.6157,-0.31393 30.43568,0.43336 31.3153,0.6154 33.39286,6.91045 1.1261,3.41212 0.48148,6.23544 -2.18882,9.58673 -1.22251,1.53427 -4.27191,1.72326 -33.0992,2.05134 -17.46395,0.19875 -35.43787,0.17934 -39.94205,-0.0431 z"
       id="path5" />
    <path
       style="fill:#157347;fill-opacity:1;stroke-width:0.965437"
       d="m 119.71691,263.45183 c -4.28323,-3.86964 -4.54508,-4.91975 -2.36985,-9.50371 3.22067,-6.78707 12.29666,-7.26371 15.72548,-0.82587 2.13585,4.01022 1.37509,7.60708 -2.28949,10.82462 -4.39785,3.86137 -6.3403,3.77447 -11.06614,-0.49504 z"
       id="path6" />
    <path
       style="fill:#157347;fill-opacity:1;stroke-width:0.965437"
       d="m 251.49159,396.87755 c -4.63499,-4.63499 -3.87854,-11.80777 1.54082,-14.61022 3.2947,-1.70376 4.84846,-1.75131 8.14514,-0.24924 5.58601,2.54516 6.85786,9.97088 2.46088,14.36786 -3.6695,3.6695 -8.76281,3.87563 -12.14684,0.4916 z"
       id="path7" />
    <path
       style="fill:#157347;fill-opacity:1;stroke-width:0.965437"
       d="m 208.57296,469.87207 c -4.0115,-4.01151 -4.05434,-8.87075 -0.11294,-12.81215 4.53308,-4.53308 10.98812,-3.36596 14.1817,2.56415 2.93752,5.45465 -0.69401,11.13879 -8.03478,12.57618 -2.59849,0.5088 -3.573,0.13279 -6.03398,-2.32818 z"
       id="path8" />
    <path
       style="fill:#157347;fill-opacity:1;stroke-width:0.965437"
       d="m 295.65942,471.1336 c -3.10552,-2.23309 -5.21848,-6.76858 -4.49542,-9.64947 0.83484,-3.32626 5.75049,-7.24625 9.08675,-7.24625 1.54801,0 4.04537,1.09152 5.71855,2.49941 5.77594,4.86013 2.87122,14.30374 -4.75311,15.45295 -2.25823,0.34038 -4.10137,-0.0101 -5.55677,-1.05664 z"
       id="path9" />
    <path
       style="fill:#224c38;stroke-width:0.965437"
       d="m 71.122753,512.18063 c -74.8252497,-0.57048 -67.6334021,0.47703 -68.6935081,-10.00535 -0.33045,-3.2675 -0.469156,-17.65392 -0.308236,-31.96982 l 0.292582,-26.0289 3.090978,-2.08243 c 2.408534,-1.62267 5.2328341,-2.23429 12.7920351,-2.77021 l 9.701055,-0.68778 v -20.49888 -20.49889 l 2.773891,-2.65756 2.773892,-2.65755 20.516395,-0.861 c 11.284017,-0.47355 20.788316,-1.13286 21.120662,-1.46512 0.332347,-0.33228 0.749313,-68.88469 0.926593,-152.33871 l 0.322325,-151.734583 2.781369,-5.85946 c 6.145732,-12.9471 15.962283,-19.92736 30.364254,-21.59113 4.24792,-0.49073 16.84687,-1.15968 27.99766,-1.48655 27.94799,-0.81925 29.16693,-1.11153 35.48386,-8.50848 19.95581,-23.36768 32.64761,-32.71395 55.05235,-40.5406695 l 8.90375,-3.11037 19.79145,0.0362 19.79144,0.0362 10.13709,3.66093 c 20.91918,7.5548195 33.78844,16.9228195 49.62789,36.1259095 3.62921,4.3999 7.9585,8.70853 9.62066,9.57473 2.33492,1.2168 7.6321,1.75929 23.29627,2.3858 32.95739,1.31817 41.13005,2.1604 46.39659,4.78139 9.61488,4.78501 16.65697,13.2032 19.6837,23.53009 0.82623,2.81902 1.37675,44.505723 2.03886,154.388113 0.49886,82.78951 1.06717,150.68653 1.2629,150.88226 0.19573,0.19572 9.3784,0.75054 20.40594,1.23292 20.02879,0.87612 20.05299,0.87985 22.81587,3.52686 l 2.7658,2.6498 v 20.44179 20.44178 l 5.06854,0.60881 c 2.7877,0.33484 7.33427,0.61258 10.10349,0.61719 4.24859,0.007 5.56794,0.47637 8.44757,3.00471 l 3.41262,2.99632 v 30.60458 30.60457 l -3.18363,3.08569 -3.18362,3.0857 -184.35242,-0.22481 C 219.56785,512.78107 107.14033,512.45523 71.122753,512.18063 Z m 99.434377,-21.68127 c -0.32316,-2.35776 -2.29137,-9.41752 -4.37379,-15.68834 -2.08241,-6.27083 -4.05756,-12.59622 -4.38922,-14.05644 l -0.60301,-2.65496 H 90.732639 20.274167 v 18.3433 18.34329 h 75.435272 75.435271 z m 42.80433,3.09355 c 1.85847,-0.006 6.15543,0.32569 9.54883,0.73745 5.13457,0.62305 6.72736,0.44839 9.49288,-1.04095 3.80001,-2.04644 6.69322,-7.05104 7.59493,-13.13751 0.34155,-2.30544 2.14092,-7.61564 3.9986,-11.80046 2.7091,-6.10278 3.28366,-8.44236 2.9029,-11.82043 -0.63658,-5.64766 -4.2688,-10.1539 -10.60118,-13.15214 -2.84723,-1.3481 -7.67168,-4.88689 -10.72101,-7.86399 -5.53006,-5.39907 -5.55956,-5.41289 -11.53504,-5.40655 -6.56508,0.007 -8.59199,0.97549 -14.45813,6.90855 -1.92279,1.94474 -6.19013,4.97185 -9.48296,6.72691 -3.45799,1.84308 -6.74107,4.42761 -7.7722,6.11847 -2.67589,4.38797 -2.39725,12.42653 0.62771,18.1089 1.33108,2.50044 3.06893,7.63039 3.86186,11.39989 1.64559,7.82282 2.31002,9.30304 5.45592,12.15461 3.31737,3.007 4.51458,3.28474 11.43253,2.65221 3.45143,-0.31557 7.7959,-0.5788 9.65436,-0.58496 z m 85.92385,0.01 c 1.85847,-0.0117 6.02363,0.30372 9.25591,0.70087 4.65116,0.57149 6.60261,0.37772 9.35647,-0.92908 4.67385,-2.21788 6.36944,-5.10686 8.14802,-13.88274 0.82413,-4.06644 2.74299,-9.73553 4.26415,-12.59797 5.46026,-10.2749 3.43743,-16.13561 -8.14904,-23.61015 -4.48792,-2.8952 -8.47313,-5.77088 -8.85601,-6.3904 -0.38289,-0.61953 -2.45576,-2.40106 -4.60638,-3.95895 -3.17588,-2.30061 -4.88919,-2.83254 -9.1232,-2.83254 -6.18169,0 -9.1073,1.39277 -14.2623,6.78976 -2.10942,2.20842 -5.85791,5.04026 -8.32999,6.29295 -2.47207,1.2527 -5.85093,3.63388 -7.50857,5.29152 -2.70024,2.70024 -3.0139,3.61236 -3.0139,8.76435 0,4.22711 0.64234,7.01803 2.42475,10.53546 1.33361,2.63175 3.07145,7.85933 3.86187,11.61684 1.72918,8.22025 2.40812,9.58706 6.45264,12.99031 2.98065,2.50805 3.44912,2.59954 9.91749,1.9367 3.73399,-0.38263 8.30963,-0.70525 10.16809,-0.71693 z M 493.33805,476.4429 v -18.3433 h -70.95958 c -60.3974,0 -70.95959,0.2025 -70.95959,1.36041 0,0.74822 -2.17223,7.91352 -4.82718,15.92287 -2.65495,8.00935 -4.82718,15.65164 -4.82718,16.98289 v 2.42042 h 75.78676 75.78677 z M 173.99193,433.26985 c 3.06859,-3.03657 5.57926,-5.84931 5.57926,-6.25054 0,-0.40123 -1.2315,-1.36634 -2.73664,-2.14468 -1.50515,-0.77835 -6.02089,-4.48229 -10.03497,-8.231 l -7.29832,-6.81583 H 103.40382 47.306389 v 14.48155 14.48154 h 60.553141 60.55315 z m 292.3139,-8.9605 V 409.8278 h -56.39238 -56.39238 l -5.23006,5.10617 c -2.87653,2.8084 -7.68628,6.73652 -10.68833,8.72917 l -5.45828,3.62301 6.01685,5.71875 6.01686,5.71875 61.06386,0.0336 61.06386,0.0336 z m -190.95432,-4.00212 c 3.41782,-1.76247 6.61325,-7.36072 7.68975,-13.47209 0.59244,-3.36335 2.31714,-8.73621 3.83267,-11.9397 5.40904,-11.43356 3.24377,-19.02893 -6.88843,-24.1633 -2.51171,-1.27277 -6.90819,-4.44366 -9.76996,-7.04641 -6.53431,-5.94289 -8.47047,-6.95694 -13.28312,-6.95694 -5.41588,0 -7.62051,1.04151 -13.56121,6.4065 -2.85995,2.58282 -7.62227,5.99936 -10.58291,7.59233 -10.20037,5.48829 -12.07898,12.23818 -6.83551,24.56017 1.61534,3.79598 3.39414,9.38065 3.95289,12.4104 1.2506,6.78118 3.27644,10.35772 6.84609,12.08656 3.15515,1.52808 35.79295,1.96986 38.59974,0.52248 z m -69.43479,-17.96156 c -0.55341,-9.88363 -2.62321,-15.12157 -7.75625,-19.62844 -4.90024,-4.30247 -8.14416,-5.3734 -18.35373,-6.05921 l -8.93609,-0.60026 0.55222,6.98929 c 1.2118,15.3375 4.30583,21.21778 13.38981,25.4477 3.94834,1.83854 6.50943,2.28145 13.23632,2.28905 l 8.34074,0.009 z m 120.67318,7.14126 c 1.70866,-0.71847 5.01689,-3.21654 7.35162,-5.55126 5.6936,-5.69361 6.85756,-8.86687 6.85756,-18.69549 v -8.23722 l -7.96485,0.009 c -9.47718,0.0112 -15.85026,2.48105 -20.72329,8.03112 -3.55743,4.0517 -4.68189,7.80317 -5.47551,18.26759 l -0.56743,7.48214 h 8.70762 c 5.14558,0 9.97847,-0.53437 11.81428,-1.30631 z m -211.66778,-64.10202 0.0352,-45.13415 3.4993,-2.65495 c 4.24145,-3.21802 7.61217,-3.36214 11.17779,-0.47792 l 2.67949,2.16743 0.91852,44.41008 c 0.50518,24.42554 0.92858,44.95314 0.94089,45.61687 0.0164,0.88232 2.5813,1.2068 9.5392,1.2068 h 9.51684 l 0.62024,-5.93424 c 0.34114,-3.26383 0.62026,-9.14861 0.62026,-13.07728 0,-6.3699 0.26653,-7.40957 2.46261,-9.60565 l 2.46262,-2.46261 17.08747,0.38928 c 14.61468,0.33295 17.83664,0.68821 22.26435,2.45491 2.84728,1.1361 5.90533,2.72487 6.79566,3.5306 1.83883,1.66412 2.32485,1.42648 11.81215,-5.77558 25.12455,-19.07272 28.11107,-20.68941 38.20615,-20.68218 9.318,0.007 13.41804,1.10796 18.95098,5.0903 2.3769,1.7108 8.16302,5.87453 12.85805,9.25277 4.69502,3.37822 10.37954,7.91856 12.63227,10.08962 l 4.09585,3.94739 3.62764,-2.18017 c 8.83316,-5.30862 9.28197,-5.39412 28.45723,-5.42207 23.47278,-0.0342 22.34902,-0.89088 22.79295,17.37558 l 0.31616,13.00933 h 9.57956 9.57957 V 253.48624 116.45342 l -4.10311,-0.49677 c -2.25671,-0.27322 -8.77133,-0.73001 -14.47692,-1.01512 -28.30171,-1.41418 -42.43322,-7.29213 -59.08435,-24.575913 -22.80289,-23.66927 -22.98755,-23.83594 -28.53554,-25.75529 -6.47748,-2.24092 -24.3557,-2.56287 -30.40935,-0.54761 -6.70047,2.23059 -13.4116,7.57044 -20.33232,16.17785 -12.08764,15.03356 -23.47675,23.997793 -37.26242,29.328783 -8.57318,3.31529 -15.13659,4.40075 -35.02446,5.79234 -7.93036,0.55491 -14.56421,1.15427 -14.74187,1.33193 -0.17766,0.17767 -0.71606,22.86365 -1.19644,50.41331 l -0.87343,50.0903 -2.54048,2.18522 c -3.22187,2.77134 -6.75605,2.77559 -10.81404,0.013 l -3.19081,-2.17223 -0.007,-57.1163 -0.007,-57.11628 2.86007,-2.40661 c 3.16307,-2.661543 5.73224,-2.950383 36.02727,-4.050393 18.45877,-0.67023 24.48992,-2.27326 34.19469,-9.08865 3.74565,-2.63047 10.44821,-8.82171 14.89458,-13.75832 13.31852,-14.78696 18.06845,-18.89774 27.08575,-23.44109 10.39396,-5.23698 16.98216,-6.65843 28.24945,-6.09501 15.79929,0.79004 28.32128,6.85459 40.12112,19.43113 18.56642,19.78851 22.69973,23.46358 31.02846,27.5885 9.78037,4.84386 16.88487,5.81339 42.78673,5.83902 l 17.33715,0.0171 3.6611,3.574963 3.66109,3.57497 v 143.17138 143.17139 h 10.89403 10.89403 l -0.32071,-138.7815 c -0.3401,-147.16958 -0.74622,-164.906683 -3.87187,-169.100483 -4.33232,-5.81284 -5.592,-6.06064 -37.71819,-7.41986 -21.74436,-0.91998 -30.98682,-1.67414 -34.83439,-2.8424 -5.52074,-1.67629 -8.31254,-4.18088 -27.59984,-24.76044 -8.90438,-9.50096 -19.18031,-16.6188 -30.6805,-21.2515 l -7.92485,-3.19241 h -20.27416 -20.27417 l -7.74726,3.12393 c -14.27518,5.75619 -26.09649,15.00577 -40.04185,31.33075 -7.24275,8.47865 -13.08688,13.09596 -18.82601,14.87399 -3.40518,1.05495 -13.52999,1.86892 -34.37015,2.76313 -16.24864,0.6972 -30.36815,1.71471 -31.37669,2.26114 -2.90071,1.57159 -6.920131,6.20536 -8.124111,9.36587 -1.56539,4.10919 -1.84676,25.090233 -2.32084,173.054493 l -0.41757,130.57529 h 11.031501 11.0315 z"
       id="path10" />
    <path
       style="fill:#224c38;stroke-width:0.965437"
       d="m 242.50195,235.17897 c -2.82289,-0.97497 -8.16161,-3.84234 -11.86382,-6.37196 -15.47911,-10.5764 -23.03129,-24.51091 -23.05782,-42.5439 -0.0343,-23.35246 15.76366,-43.39499 38.87115,-49.31486 8.14188,-2.08585 22.33556,-1.35589 29.67654,1.52621 12.27347,4.81863 25.16242,17.70758 29.98104,29.98105 2.57667,6.56298 3.56496,21.27132 1.9515,29.04329 -3.59018,17.29384 -18.2082,32.82567 -35.74131,37.97562 -7.41091,2.17679 -23.1096,2.02123 -29.81728,-0.29545 z m 29.93288,-18.38928 c 5.72176,-2.70104 13.5825,-10.50847 16.36281,-16.25183 2.89709,-5.98459 3.55132,-17.28217 1.42447,-24.59828 -1.80395,-6.20537 -8.90625,-14.73531 -15.44257,-18.54669 -8.08502,-4.71444 -23.4013,-5.17477 -31.57318,-0.94893 -5.1936,2.68572 -13.15847,10.97719 -15.47388,16.10839 -3.21479,7.12435 -3.25149,21.29961 -0.072,27.81903 3.22474,6.61225 12.46293,15.2622 18.67078,17.48192 7.0233,2.5113 19.61775,1.99813 26.10359,-1.06361 z"
       id="path11" />
    <path
       style="fill:#224c38;stroke-width:0.965437"
       d="m 194.24212,273.41393 c -3.63091,-3.74615 -3.8494,-6.29717 -0.97704,-11.40783 l 2.10865,-3.75184 61.85152,0.007 61.85151,0.007 2.17224,3.19081 c 2.87003,4.21582 2.74046,7.32137 -0.48272,11.56961 l -2.65495,3.49931 -60.39176,0.0352 -60.39175,0.0352 z"
       id="path12" />
    <path
       style="fill:#224c38;stroke-width:0.965437"
       d="m 219.6368,319.39479 c -5.02775,-1.34715 -7.09529,-6.14109 -4.90715,-11.37805 0.94623,-2.26466 2.28319,-3.59895 4.11946,-4.11124 1.49521,-0.41714 19.24704,-0.75844 39.44852,-0.75844 40.76634,0 41.06737,0.0447 42.44266,6.30639 0.76115,3.4655 -0.88778,8.18141 -3.23288,9.24595 -1.82987,0.83066 -74.92949,1.48344 -77.87061,0.69539 z"
       id="path13" />
    <path
       style="fill:#224c38;stroke-width:0.965437"
       d="m 120.23044,262.98144 c -4.1886,-3.67764 -4.36678,-6.52513 -0.66739,-10.66547 3.53791,-3.95961 7.86023,-4.16925 11.47301,-0.55646 3.61279,3.61279 3.40315,7.93511 -0.55646,11.47302 -3.9283,3.50994 -6.02406,3.45859 -10.24916,-0.25109 z"
       id="path14" />
    <path
       style="fill:#224c38;stroke-width:0.965437"
       d="m 254.39252,398.08743 c -5.71235,-3.14141 -7.0542,-9.90575 -2.75533,-13.8898 5.2434,-4.85943 13.85785,-1.51781 13.85785,5.37559 0,4.25014 -1.58123,6.6909 -5.3566,8.26835 -3.83098,1.60069 -3.32191,1.5789 -5.74592,0.24586 z"
       id="path15" />
    <path
       style="fill:#224c38;stroke-width:0.965437"
       d="m 208.64415,469.12253 c -2.90665,-3.69521 -3.27477,-5.77222 -1.59777,-9.01516 2.99412,-5.78999 9.44584,-6.71616 13.47004,-1.93368 3.90223,4.63754 3.01766,9.22966 -2.30845,11.9839 -4.17708,2.16005 -7.31793,1.82013 -9.56382,-1.03506 z"
       id="path16" />
    <path
       style="fill:#224c38;stroke-width:0.965437"
       d="m 294.06124,468.64535 c -3.27536,-3.89254 -3.17731,-7.12005 0.32263,-10.61999 6.58009,-6.58009 16.72634,-0.23134 13.18305,8.24894 -2.56101,6.12935 -9.34162,7.31975 -13.50568,2.37105 z"
       id="path17" />
  </g>
</svg>
