<?xml version="1.0" encoding="UTF-8" standalone="no"?>
<!-- Created with Inkscape (http://www.inkscape.org/) -->

<svg
   version="1.1"
   id="svg1"
   width="512"
   height="512"
   viewBox="0 0 512 512"
   sodipodi:docname="fountain.svg"
   inkscape:version="1.3 (0e150ed6c4, 2023-07-21)"
   xmlns:inkscape="http://www.inkscape.org/namespaces/inkscape"
   xmlns:sodipodi="http://sodipodi.sourceforge.net/DTD/sodipodi-0.dtd"
   xmlns="http://www.w3.org/2000/svg"
   xmlns:svg="http://www.w3.org/2000/svg">
  <defs
     id="defs1" />
  <sodipodi:namedview
     id="namedview1"
     pagecolor="#ffffff"
     bordercolor="#000000"
     borderopacity="0.25"
     inkscape:showpageshadow="2"
     inkscape:pageopacity="0.0"
     inkscape:pagecheckerboard="0"
     inkscape:deskcolor="#d1d1d1"
     inkscape:zoom="1.0730898"
     inkscape:cx="220.85757"
     inkscape:cy="309.85292"
     inkscape:window-width="1920"
     inkscape:window-height="991"
     inkscape:window-x="-9"
     inkscape:window-y="-9"
     inkscape:window-maximized="1"
     inkscape:current-layer="g1" />
  <g
     inkscape:groupmode="layer"
     inkscape:label="Image"
     id="g1">
    <path
       style="fill:#256346;stroke-width:0.931888;fill-opacity:1"
       d="M 65.8804,508.44027 C 57.356534,505.62175 49.142776,498.30554 44.645001,489.52533 42.946442,486.20953 42.860789,481.17449 42.338447,353.93556 42.040079,281.2552 42.155746,211.30572 42.595485,198.49225 l 0.799527,-23.29721 3.879717,-7.99631 C 52.043198,157.37068 58.969916,149.9856 69.425692,143.58201 147.61296,95.696565 191.51559,69.431913 197.02314,67.247105 c 3.65476,-1.449825 6.85018,-1.870573 14.0496,-1.849945 18.36008,0.0526 27.82998,6.131012 42.58275,27.332435 9.30176,13.367695 14.64992,22.858175 18.11378,32.143465 l 3.12876,8.387 0.005,33.17441 c 0.002,18.24592 0.27503,36.37428 0.60562,40.28522 0.70678,8.36109 -0.20748,7.10525 24.53902,33.70754 29.73996,31.97021 30.25191,32.69565 30.25191,42.86687 0,7.58536 -1.90156,11.97234 -7.55377,17.42692 -7.55122,7.28719 -19.23176,9.55343 -27.81756,5.39713 -2.66264,-1.28896 -9.62804,-7.66853 -20.19655,-18.49791 -21.15734,-21.67957 -45.41683,-47.8956 -47.79161,-51.64601 -1.77265,-2.7995 -1.9332,-5.12499 -2.61596,-37.88897 -0.40007,-19.19854 -0.90799,-35.08701 -1.1287,-35.30773 -0.42335,-0.42336 -14.94934,8.01352 -75.10824,43.62381 l -36.89314,21.83843 -0.61537,44.68727 c -0.33845,24.57799 -0.61537,81.95244 -0.61537,127.49877 v 82.81151 l -2.86859,5.68264 c -8.36109,16.56324 -25.5441,24.70171 -41.21385,19.52031 z"
       id="path2" />
    <path
       style="fill:#157347;stroke-width:0.931888"
       d="M 278.58078,103.63785 C 260.28577,97.400843 246.2028,81.501248 243.19886,63.691858 c -3.74438,-22.19918 7.00259,-43.774372 27.05302,-54.3105732 11.59398,-6.0924666 23.29141,-7.4738496 35.92563,-4.2425603 26.84824,6.8666215 43.54455,34.4308875 37.1885,61.3952115 -4.21189,17.868173 -19.23211,32.93283 -37.74885,37.860554 -7.77967,2.07034 -19.72458,1.73605 -27.03638,-0.75664 z"
       id="path3" />
    <path
       style="fill:#157347;stroke-width:0.931888"
       d="m 369.49378,166.39301 c -4.62729,-1.89391 -6.82957,-7.03702 -4.74192,-11.07408 1.60723,-3.10805 3.11956,-3.88705 7.54616,-3.88705 4.16594,0 7.18443,3.69143 6.79294,8.30734 -0.21485,2.53324 -1.00018,3.76616 -3.44474,5.40803 -3.48114,2.33809 -3.4828,2.33843 -6.15244,1.24576 z"
       id="path4" />
    <path
       style="fill:#157347;stroke-width:0.931888"
       d="m 395.451,148.83483 c -2.64497,-0.40048 -4.83735,-2.93129 -5.52717,-6.38039 -0.43634,-2.18173 -0.0101,-3.45089 1.93555,-5.76316 4.48165,-5.32614 12.06557,-3.27537 13.15868,3.55823 0.88348,5.52315 -3.54494,9.49715 -9.56706,8.58532 z"
       id="path5" />
    <path
       style="fill:#157347;stroke-width:0.931888"
       d="m 420.38428,139.88065 c -4.88281,-2.70633 -6.08239,-8.64656 -2.47466,-12.25429 6.29046,-6.29046 16.76717,1.15158 12.59523,8.94692 -0.90497,1.69095 -5.52355,4.6468 -7.14823,4.5748 -0.40986,-0.0182 -1.74741,-0.58851 -2.97234,-1.26743 z"
       id="path6" />
    <path
       style="fill:#157347;stroke-width:0.931888"
       d="m 446.70726,148.64406 c -2.56308,-1.03433 -4.99212,-4.50501 -4.99212,-7.13286 0,-3.22239 4.37323,-7.7852 7.46173,-7.7852 3.93607,0 5.50231,0.86511 7.07611,3.90849 2.00432,3.87595 0.91338,7.90328 -2.7452,10.13413 -3.23824,1.97455 -3.87408,2.0564 -6.80052,0.87544 z"
       id="path7" />
    <path
       style="fill:#157347;stroke-width:0.931888"
       d="m 387.62346,295.17567 c -51.68569,-52.06594 -68.58057,-69.6583 -71.1981,-74.13742 -2.37596,-4.06573 -2.57696,-5.097 -2.17951,-11.18266 0.7024,-10.75524 5.73336,-17.99882 15.50215,-22.32002 3.98851,-1.76431 7.18192,-1.85395 83.2184,-2.336 l 79.07071,-0.5013 v 69.10055 69.10054 h -38.44622 -38.44622 z"
       id="path8" />
    <path
       style="fill:#256346;fill-opacity:1;stroke-width:0.931888"
       d="m 279.9832,103.52984 c -7.34025,-2.29905 -15.83466,-7.587166 -21.85009,-13.602602 -9.99659,-9.996583 -14.91881,-21.520529 -14.89916,-34.881985 0.033,-22.452236 13.75241,-41.128164 35.60055,-48.4623422 18.08859,-6.07214021 39.44533,-0.096595 52.49141,14.6869242 4.68844,5.312842 10.04072,15.551166 11.53384,22.062979 1.36115,5.936304 1.21251,18.249178 -0.28835,23.8858 -3.07,11.529738 -13.04685,24.649887 -23.28817,30.625342 -8.97494,5.236574 -15.59141,6.999484 -26.01372,6.931154 -5.23021,-0.0343 -11.20905,-0.59466 -13.28631,-1.24527 z"
       id="path9" />
    <path
       style="fill:#256346;fill-opacity:1;stroke-width:0.931888"
       d="m 385.71176,292.38001 c -44.47949,-44.70432 -65.80701,-67.00739 -68.54638,-71.68178 -2.16417,-3.69288 -2.3783,-4.86095 -1.98764,-10.84264 0.67409,-10.32179 4.72074,-16.64188 13.45887,-21.02018 5.00328,-2.50693 11.99438,-2.75185 97.46939,-3.41473 l 65.93111,-0.51132 v 68.995 68.995 h -37.97974 -37.97975 z"
       id="path10" />
    <path
       style="fill:#256346;fill-opacity:1;stroke-width:0.931888"
       d="m 367.09237,163.61811 c -3.09133,-3.09133 -3.32215,-4.59884 -1.30221,-8.50496 1.2489,-2.41512 1.92227,-2.74938 5.53849,-2.74938 4.79822,0 7.01807,2.25622 7.01807,7.13305 0,2.2376 -0.68162,3.47616 -2.70655,4.91804 -3.63509,2.58841 -5.31965,2.43139 -8.5478,-0.79675 z"
       id="path11" />
    <path
       style="fill:#256346;fill-opacity:1;stroke-width:0.931888"
       d="m 392.74863,146.34885 c -2.64262,-2.64263 -2.9217,-5.71118 -0.79549,-8.74677 2.23226,-3.18699 5.54187,-4.14185 8.69835,-2.50956 4.46842,2.3107 5.17166,7.58541 1.50075,11.25633 -2.91521,2.9152 -6.48841,2.9152 -9.40361,0 z"
       id="path12" />
    <path
       style="fill:#256346;fill-opacity:1;stroke-width:0.931888"
       d="m 419.01995,137.96399 c -2.41708,-2.24007 -3.08369,-5.27104 -1.86039,-8.4589 0.95196,-2.48078 5.77016,-4.12061 8.90072,-3.02929 5.22094,1.82003 6.2404,8.65987 1.76565,11.84618 -3.54467,2.52402 -5.79495,2.43254 -8.80598,-0.35799 z"
       id="path13" />
    <path
       style="fill:#1e5038;fill-opacity:1;stroke-width:0.931888"
       d="m 444.93439,146.34885 c -2.79538,-2.79538 -2.91806,-5.97838 -0.35595,-9.23557 2.6753,-3.40109 8.36125,-3.48656 10.5419,-0.15846 2.21655,3.38287 1.86992,6.77276 -0.96079,9.39617 -3.13612,2.90645 -6.3173,2.90572 -9.22516,-0.002 z"
       id="path14" />
    <path
       style="fill:#1e5038;fill-opacity:1;stroke-width:0.931888"
       d="M 64.581731,507.36448 C 58.994504,505.16246 51.561773,498.8285 47.273782,492.61515 l -2.971393,-4.30559 -0.746991,-27.49071 C 43.144553,445.69896 42.926399,375.45787 43.070611,304.72753 l 0.262203,-128.60061 4.085166,-7.92105 C 53.872866,155.68998 61.498066,148.85697 84.801851,134.70583 137.4378,102.74286 189.09349,71.918697 194.39749,69.307546 c 7.07637,-3.483685 15.51884,-4.407818 25.07117,-2.744351 12.22947,2.12967 20.35581,8.231063 31.55388,23.69118 9.12606,12.599495 15.80251,23.920335 19.98173,33.881755 l 3.43689,8.19203 0.46594,40.15283 0.46594,40.15284 2.60788,3.76122 c 1.43434,2.06867 10.87385,12.72536 20.97669,23.68153 29.31639,31.79257 30.93559,34.01718 30.92571,42.48867 -0.008,6.87053 -1.53377,10.88272 -6.0477,15.90331 -5.29095,5.8848 -11.89928,8.89036 -19.57403,8.90253 -6.95854,0.0111 -9.39873,-1.23652 -18.00635,-9.20586 -15.75795,-14.58944 -57.52848,-59.78096 -59.40358,-64.2687 -0.80572,-1.92836 -1.46957,-13.46562 -2.10939,-36.65965 -0.51351,-18.61513 -1.20146,-34.1135 -1.52877,-34.44081 -0.3273,-0.32731 -2.77353,0.62175 -5.43605,2.10902 -4.011,2.24054 -74.81814,43.88515 -99.42761,58.4775 l -6.98917,4.14428 -0.58521,12.9734 c -0.32187,7.13537 -0.63638,64.49472 -0.69892,127.46523 l -0.1137,114.49185 -3.02864,5.68468 c -4.0761,7.65074 -11.437935,15.00918 -18.116874,18.10851 -7.314154,3.3941 -17.287026,3.85249 -24.235595,1.11394 z"
       id="path15" />
    <path
       style="fill:#1e5038;fill-opacity:1;stroke-width:0.931888"
       d="M 284.98599,103.86601 C 271.40977,102.28263 255.22923,89.851424 248.47996,75.819117 237.36642,52.71313 245.67313,25.497613 267.91794,12.13383 c 36.03374,-21.6476145 80.33254,7.493232 75.12724,49.420561 -1.20656,9.718544 -5.69632,18.672151 -13.69554,27.312044 -7.57278,8.179303 -17.60263,13.582475 -27.88372,15.021225 -7.23009,1.01179 -7.62336,1.01128 -16.47993,-0.0216 z"
       id="path16" />
    <path
       style="fill:#1e5038;fill-opacity:1;stroke-width:0.931888"
       d="m 366.84066,162.61399 c -2.25186,-2.67617 -2.34448,-3.12148 -1.22179,-5.87404 2.39227,-5.86526 10.04096,-5.47674 12.06407,0.6128 1.18102,3.55488 -1.60237,7.47289 -5.59391,7.87423 -2.19402,0.22059 -3.34715,-0.35351 -5.24837,-2.61299 z"
       id="path17" />
    <path
       style="fill:#1e5038;fill-opacity:1;stroke-width:0.931888"
       d="m 395.51955,147.66949 c -4.65902,-1.72349 -5.74405,-6.97607 -2.21666,-10.7308 2.75487,-2.93243 5.94455,-2.89824 8.9386,0.0958 1.85634,1.85634 2.23918,2.92736 1.74881,4.89242 -1.17268,4.69929 -4.74475,7.12091 -8.47075,5.74257 z"
       id="path18" />
    <path
       style="fill:#1e5038;fill-opacity:1;stroke-width:0.931888"
       d="m 421.11535,138.97721 c -1.22732,-0.61174 -2.8173,-2.33405 -3.5333,-3.82735 -1.11705,-2.32972 -1.11432,-3.04916 0.0192,-5.06876 1.84512,-3.28731 6.57136,-4.5281 9.62544,-2.52699 3.26846,2.14158 3.99663,5.73391 1.76748,8.71962 -2.34626,3.14255 -5.10136,4.08791 -7.87887,2.70348 z"
       id="path19" />
    <path
       style="fill:#1e5038;fill-opacity:1;stroke-width:0.931888"
       d="m 445.12118,146.00014 c -2.40456,-2.65701 -1.96923,-7.14358 0.91313,-9.41084 2.93416,-2.30802 4.80959,-2.42684 7.58803,-0.48074 2.91214,2.03975 2.91214,8.10534 0,10.14509 -2.77987,1.94709 -6.61309,1.83279 -8.50116,-0.25351 z"
       id="path20" />
    <path
       style="fill:#224c38;fill-opacity:1;stroke-width:0.931888"
       d="m 406.82278,313.3475 c -5.04937,-5.25352 -24.1191,-24.64845 -42.37716,-43.09984 -37.75746,-38.15725 -47.18106,-48.54446 -48.49476,-53.45358 -1.08194,-4.04303 0.0739,-13.5673 2.12114,-17.47825 1.81087,-3.45943 6.75203,-8.09653 10.80796,-10.1429 4.29528,-2.16713 29.13657,-3.01632 104.68115,-3.57848 l 58.476,-0.43515 v 68.87003 68.87003 h -38.01682 -38.01682 z"
       id="path21" />
    <path
       style="fill:#224c38;fill-opacity:1;stroke-width:0.931888"
       d="m 414.96965,321.61825 c -0.40987,-0.7046 -18.81969,-19.68018 -40.9107,-42.16795 -43.84287,-44.6303 -54.61363,-56.132 -56.74628,-60.59734 -1.66818,-3.49284 -1.77726,-7.80469 -0.36414,-14.39388 1.12133,-5.22855 6.31258,-11.89046 11.25865,-14.44817 4.67563,-2.41787 24.31499,-3.20678 94.63721,-3.80157 l 69.19272,-0.58523 v 68.63762 68.63763 h -38.16112 c -31.39296,0 -38.29329,-0.22722 -38.90634,-1.28111 z"
       id="path22" />
    <path
       style="fill:#224c38;fill-opacity:1;stroke-width:0.931888"
       d="M 63.561032,506.48841 C 58.983524,504.41089 49.39336,495.62392 46.333034,490.70329 l -2.068332,-3.32562 -0.273623,-155.90296 -0.273623,-155.90295 3.857251,-6.98762 c 4.863772,-8.81099 11.588276,-16.09857 21.320603,-23.1059 8.14346,-5.86334 116.96652,-71.499622 125.32206,-75.587611 10.21529,-4.997873 24.34371,-4.782268 35.60248,0.543306 11.66988,5.520038 31.14214,31.169755 40.79468,53.736585 l 3.28689,7.68446 0.6531,40.64717 0.65309,40.64718 3.64644,4.61308 c 2.00553,2.53721 12.27754,14.12629 22.82669,25.7535 22.27916,24.55602 25.78676,28.99913 27.25551,34.52478 4.61198,17.35093 -16.88013,34.98613 -33.08027,27.14377 -7.48077,-3.62137 -66.36263,-65.2974 -68.79458,-72.05915 -0.33838,-0.94081 -1.03816,-13.31163 -1.55507,-27.49071 -1.33754,-36.68936 -1.80689,-43.02006 -3.18947,-43.02006 -1.10271,0 -24.55471,13.57211 -84.49545,48.89909 l -26.6569,15.71066 -0.60084,11.17424 c -0.33045,6.14584 -0.60083,63.3636 -0.60083,127.15058 v 115.97635 l -3.02864,5.72163 c -4.31108,8.14438 -13.057368,16.63053 -19.703028,19.117 -7.052342,2.63861 -18.003533,2.69614 -23.67014,0.12432 z"
       id="path23" />
    <path
       style="fill:#224c38;fill-opacity:1;stroke-width:0.931888"
       d="m 280.39823,102.55483 c -9.88247,-2.725308 -22.74486,-12.52852 -28.7819,-21.936446 -4.5019,-7.015597 -7.46371,-17.313854 -7.45049,-25.905436 0.0213,-13.827216 4.41704,-24.326928 14.36181,-34.304659 17.05682,-17.1133521 41.68188,-20.03141327 61.69036,-7.310287 13.40622,8.523498 21.51906,22.463302 22.47754,38.621808 0.91044,15.348889 -3.22512,25.897652 -14.61568,37.28085 -7.69393,7.688963 -13.55152,11.27922 -21.98709,13.4764 -6.52615,1.69985 -19.66835,1.73963 -25.69455,0.0778 z"
       id="path24" />
    <path
       style="fill:#224c38;fill-opacity:1;stroke-width:0.931888"
       d="m 367.3265,162.32151 c -2.40238,-2.55722 -2.53481,-4.15749 -0.57554,-6.95473 1.82883,-2.61103 6.90591,-2.81527 9.12161,-0.36694 5.19483,5.74022 -3.24163,12.96798 -8.54607,7.32167 z"
       id="path25" />
    <path
       style="fill:#224c38;fill-opacity:1;stroke-width:0.931888"
       d="m 393.3054,145.42619 c -3.55536,-3.7845 -0.76634,-9.83642 4.53311,-9.83642 5.32709,0 7.52653,6.31725 3.51239,10.08833 -2.81547,2.645 -5.40002,2.56407 -8.0455,-0.25191 z"
       id="path26" />
    <path
       style="fill:#224c38;fill-opacity:1;stroke-width:0.931888"
       d="m 419.51225,137.16052 c -3.98123,-4.23783 -1.57271,-9.95774 4.19298,-9.95774 5.53261,0 7.84242,6.23294 3.73855,10.08833 -2.78085,2.61247 -5.39498,2.56943 -7.93153,-0.13059 z"
       id="path27" />
    <path
       style="fill:#224c38;fill-opacity:1;stroke-width:0.931888"
       d="m 445.12118,146.00014 c -2.40456,-2.65701 -1.96923,-7.14358 0.91313,-9.41084 2.93416,-2.30802 4.80959,-2.42684 7.58803,-0.48074 2.91214,2.03975 2.91214,8.10534 0,10.14509 -2.77987,1.94709 -6.61309,1.83279 -8.50116,-0.25351 z"
       id="path28" />
  </g>
</svg>
