<svg width="34" height="34" viewBox="0 0 28 27" fill="none" xmlns="http://www.w3.org/2000/svg">
<g filter="url(#filter0_d_2319_781)">
<path d="M15.8785 1.875V3.6285H14.125V1.875H15.8785ZM10.6705 3.30562L11.9113 4.5455L10.6714 5.78537L9.4315 4.5455L10.6705 3.30562ZM19.333 3.30562L20.5711 4.54463L19.333 5.7845L18.0923 4.5455L19.333 3.30562ZM11.4641 6.29812C12.1343 5.37484 13.1387 4.74987 14.2631 4.55648C15.3874 4.36308 16.5429 4.61655 17.4831 5.26285C18.4232 5.90915 19.0738 6.89714 19.2959 8.01619C19.5181 9.13524 19.2943 10.2968 18.6724 11.2533C19.6357 12.102 20.25 13.3305 20.25 14.7086C20.25 17.3161 18.0642 19.375 15.4375 19.375H6.775C4.58312 19.375 2.75 17.6565 2.75 15.4673C2.75 13.866 3.73437 12.5133 5.11775 11.9051C5.11432 11.8285 5.11257 11.7517 5.1125 11.675C5.1125 8.6475 7.65088 6.25 10.7125 6.25C10.9668 6.25 11.2174 6.26633 11.4641 6.299M13.3086 6.86775C14.6141 7.531 15.6239 8.68163 16.0666 10.0825C16.451 10.1315 16.8185 10.2219 17.1691 10.3537C17.5272 9.82944 17.6832 9.19309 17.6081 8.56261C17.5329 7.93212 17.2318 7.35024 16.7605 6.92476C16.2892 6.49928 15.6797 6.25904 15.0448 6.24856C14.41 6.23808 13.7928 6.45806 13.3077 6.86775M10.7125 8C8.55475 8 6.8625 9.6765 6.8625 11.675C6.8625 11.9048 6.88379 12.1283 6.92637 12.3452L7.08737 13.1809L6.25612 13.3646C5.228 13.5921 4.5 14.4671 4.5 15.4673C4.5 16.6275 5.487 17.625 6.775 17.625H15.4375C17.1604 17.625 18.5 16.2889 18.5 14.7086C18.5 13.6446 17.8998 12.6988 16.9766 12.186C16.4904 11.9167 15.9416 11.7809 15.3859 11.7922L14.6386 11.8036L14.51 11.0677C14.2632 9.6485 13.1538 8.48125 11.6803 8.11725C11.3636 8.0391 11.0386 7.99973 10.7125 8ZM20.25 8H22.0035V9.7535H20.25V8Z" fill="#004D40"/>
</g>
<defs>
<filter id="filter0_d_2319_781" x="0.75" y="0.875" width="27.2534" height="25.5" filterUnits="userSpaceOnUse" color-interpolation-filters="sRGB">
<feFlood flood-opacity="0" result="BackgroundImageFix"/>
<feColorMatrix in="SourceAlpha" type="matrix" values="0 0 0 0 0 0 0 0 0 0 0 0 0 0 0 0 0 0 127 0" result="hardAlpha"/>
<feOffset dx="2" dy="3"/>
<feGaussianBlur stdDeviation="2"/>
<feComposite in2="hardAlpha" operator="out"/>
<feColorMatrix type="matrix" values="0 0 0 0 0 0 0 0 0 0 0 0 0 0 0 0 0 0 0.25 0"/>
<feBlend mode="normal" in2="BackgroundImageFix" result="effect1_dropShadow_2319_781"/>
<feBlend mode="normal" in="SourceGraphic" in2="effect1_dropShadow_2319_781" result="shape"/>
</filter>
</defs>
</svg>
